# xmcd CD database file
#
# Track frame offsets:
#	150
#	15359
#	31649
#	51883
#	65178
#	83225
#	96526
#	113570
#	130763
#	147725
#	167851
#	184273
#	198711
#
# Disc length: 2850 seconds
#
# Revision: 0
# Processed by: cddbd v1.5.1PL0 Copyright (c) Steve Scherf et al.
# Submitted via: CDex 1.51
#
DISCID=bb0b200d
DTITLE=The Road Band - vis dar...
DYEAR=2002
DGENRE=Blues
TTITLE0=Vis dar ziema
TTITLE1=Jis mums pades
TTITLE2=Man tai atrodo keistai
TTITLE3=Nezianu, kodel man neramu
TTITLE4=Leisk man
TTITLE5=As palauksiu
TTITLE6=Tau
TTITLE7=Bliuzo naktys
TTITLE8=Mano pasaulis
TTITLE9=Mna tai atrodo keistai(Moroz edit)
TTITLE10=Mes galim rinktis
TTITLE11=As vel ajuciu(Dance version)
TTITLE12=Vis dar ziema(Fino's Major edit)
EXTD=YEAR: 2002
EXTT0=
EXTT1=
EXTT2=
EXTT3=
EXTT4=
EXTT5=
EXTT6=
EXTT7=
EXTT8=
EXTT9=
EXTT10=
EXTT11=
EXTT12=
PLAYORDER=
